<svg xmlns="http://www.w3.org/2000/svg" xml:space="preserve" style="enable-background:new 0 0 392.138 392.138" viewBox="0 0 392.138 392.138"><path d="m290.845 295.334 5.816 5.844-90.96 90.96h181.48l-68.109-68.439c15.535-14.474 28.635-31.564 38.452-50.335 13.856-26.498 21.181-56.405 21.181-86.489C378.705 83.832 294.874 0 191.831 0S4.957 83.832 4.957 186.874c0 35.732 10.123 70.47 29.274 100.459 18.629 29.172 44.9 52.578 75.971 67.687l17.492-35.973C76.66 294.23 44.957 243.585 44.957 186.874 44.957 105.887 110.844 40 191.831 40s146.874 65.887 146.874 146.874c0 41.362-17.637 80.793-47.86 108.46z" style="fill:#2488ff"/><path d="m296.661 301.178-5.816-5.844-85.144-85.556v182.36z" style="fill:#005ece"/></svg>
